<svg xmlns="http://www.w3.org/2000/svg" xmlns:xlink="http://www.w3.org/1999/xlink" width="43" height="56" viewBox="0 0 43 56">
  <defs>
    <clipPath id="clip-path">
      <rect width="43" height="56" fill="none"/>
    </clipPath>
    <filter id="Path_78" x="28" y="-0.849" width="17.849" height="17.849" filterUnits="userSpaceOnUse">
      <feOffset dy="2" input="SourceAlpha"/>
      <feGaussianBlur stdDeviation="1" result="blur"/>
      <feFlood flood-opacity="0.353"/>
      <feComposite operator="in" in2="blur"/>
      <feComposite in="SourceGraphic"/>
    </filter>
  </defs>
  <g id="icon-acrobat" clip-path="url(#clip-path)">
    <g id="icon-file" clip-path="url(#clip-path)">
      <path id="Path_259" data-name="Path 259" d="M36.985,0H7.963C7.155,0,6.5.643,6.5,1.892V54.016c0,.339.655.982,1.463.982H48.037c.808,0,1.463-.643,1.463-.982V12.746c0-.684-.093-.9-.257-1.066L37.607.252A.892.892,0,0,0,36.985,0Z" transform="translate(-6.5 1)" fill="#00113f"/>
      <path id="Path_77" data-name="Path 77" d="M36.985,0H7.963C7.155,0,6.5.644,6.5,1.894V54.076c0,.339.655.983,1.463.983H48.037c.808,0,1.463-.644,1.463-.983V12.76c0-.684-.093-.9-.257-1.067L37.607.253A.891.891,0,0,0,36.985,0Z" transform="translate(-6.5)" fill="#efefef"/>
      <g transform="matrix(1, 0, 0, 1, 0, 0)" filter="url(#Path_78)">
        <path id="Path_78-2" data-name="Path 78" d="M37.5.151V12H49.349Z" transform="translate(-6.5)" fill="#efefef"/>
      </g>
    </g>
    <path id="Path_76" data-name="Path 76" d="M19.514,33.324h0A1.605,1.605,0,0,1,18.547,33a2.4,2.4,0,0,1-1.115-2.242c.182-1.628,2.195-3.332,5.985-5.068a67.126,67.126,0,0,0,3.788-10.75c-1-2.172-1.968-4.99-1.261-6.643A1.918,1.918,0,0,1,27.078,7.08a4.909,4.909,0,0,1,1.016-.172c.5,0,.947.649,1.261,1.049.3.376.964,1.173-.373,6.8a31.954,31.954,0,0,0,5.088,7.562,19.455,19.455,0,0,1,3.358-.358c1.566,0,2.515.365,2.9,1.117a2.024,2.024,0,0,1-.39,2.16,2.658,2.658,0,0,1-2.22,1.191c-1.216,0-2.632-.768-4.211-2.285a47.915,47.915,0,0,0-8.828,2.822A28.374,28.374,0,0,1,22.3,31.219C21.273,32.654,20.389,33.324,19.514,33.324ZM22.176,28.2c-2.137,1.2-3.008,2.188-3.071,2.744-.01.092-.037.334.431.692C19.685,31.587,20.555,31.19,22.176,28.2Zm13.637-4.442c.815.627,1.014.944,1.547.944a1.508,1.508,0,0,0,1.21-.441,1.583,1.583,0,0,0,.23-.415c-.123-.065-.286-.2-1.175-.2A14.621,14.621,0,0,0,35.813,23.756Zm-7.47-6.582a71.291,71.291,0,0,1-2.674,7.564,49.966,49.966,0,0,1,6.5-2.02A34.23,34.23,0,0,1,28.343,17.174Zm-.607-8.462a2.4,2.4,0,0,0,.1,3.216C28.781,9.813,27.779,8.7,27.736,8.712Z" transform="translate(-7.5 8)" fill="#d0075c"/>
  </g>
</svg>
