<svg xmlns="http://www.w3.org/2000/svg" xmlns:xlink="http://www.w3.org/1999/xlink" width="43" height="56" viewBox="0 0 43 56">
  <defs>
    <clipPath id="clip-path">
      <rect width="43" height="56" fill="none"/>
    </clipPath>
    <filter id="Path_78" x="28" y="-0.849" width="17.849" height="17.849" filterUnits="userSpaceOnUse">
      <feOffset dy="2" input="SourceAlpha"/>
      <feGaussianBlur stdDeviation="1" result="blur"/>
      <feFlood flood-opacity="0.353"/>
      <feComposite operator="in" in2="blur"/>
      <feComposite in="SourceGraphic"/>
    </filter>
  </defs>
  <g id="icon-spss" clip-path="url(#clip-path)">
    <g id="icon-file" clip-path="url(#clip-path)">
      <path id="Path_259" data-name="Path 259" d="M36.985,0H7.963C7.155,0,6.5.643,6.5,1.892V54.016c0,.339.655.982,1.463.982H48.037c.808,0,1.463-.643,1.463-.982V12.746c0-.684-.093-.9-.257-1.066L37.607.252A.892.892,0,0,0,36.985,0Z" transform="translate(-6.5 1)" fill="#00113f"/>
      <path id="Path_77" data-name="Path 77" d="M36.985,0H7.963C7.155,0,6.5.644,6.5,1.894V54.076c0,.339.655.983,1.463.983H48.037c.808,0,1.463-.644,1.463-.983V12.76c0-.684-.093-.9-.257-1.067L37.607.253A.891.891,0,0,0,36.985,0Z" transform="translate(-6.5)" fill="#efefef"/>
      <g transform="matrix(1, 0, 0, 1, 0, 0)" filter="url(#Path_78)">
        <path id="Path_78-2" data-name="Path 78" d="M37.5.151V12H49.349Z" transform="translate(-6.5)" fill="#efefef"/>
      </g>
    </g>
    <path id="Path_258" data-name="Path 258" d="M118.349,207.6c-.8-.264-1.91-.542-2.358-.688a.545.545,0,0,1-.433-.531c0-.327.4-.532.878-.555.8.024,1.027.46,1.072.794h2.754c.024-1.886-1.555-3.161-3.826-3.161a3.718,3.718,0,0,0-3.375,1.561,3.915,3.915,0,0,0-3.386-1.561,3.78,3.78,0,0,0-3.305,1.491,3.8,3.8,0,0,0-3.071-1.4H98.837v1.44a3.888,3.888,0,0,0-3.366-1.535c-2.348,0-3.629,1.294-3.748,2.789a3.074,3.074,0,0,0,1.135,2.352,4.192,4.192,0,0,0,1.44.8c.875.311,1.548.521,1.78.621.451.19.732.311.732.723,0,.451-.535.642-1.058.661-.723-.009-1.455-.365-1.442-1.11l-2.9,0c.154,1.923,2.05,3.408,4.291,3.45a4.719,4.719,0,0,0,3.135-1.067l0,.909H101.7V210.9l0-.479,1.679,0a3.73,3.73,0,0,0,3.259-1.828c.045-.082.089-.168.127-.253a3.555,3.555,0,0,0,.267.253,4.346,4.346,0,0,0,1.476.8c.876.311,1.547.521,1.782.621.451.19.729.311.729.723,0,.451-.532.642-1.057.661-.723-.009-1.454-.365-1.44-1.11l-2.9,0c.154,1.923,2.053,3.408,4.293,3.45a4.355,4.355,0,0,0,3.427-1.387,4.174,4.174,0,0,0,3.081,1.387c2.116-.025,4.3-1.046,4.333-3.291a2.77,2.77,0,0,0-.637-1.846A3.341,3.341,0,0,0,118.349,207.6Zm-19.512-.3,0,1a3.7,3.7,0,0,0-1.451-.7c-.8-.264-1.911-.542-2.36-.688a.546.546,0,0,1-.435-.531c0-.327.4-.532.881-.555.8.024,1.025.46,1.071.794h2.295v.685Zm4.387.758H101.7v-2.143h1.528a1.072,1.072,0,0,1,0,2.143Zm13.494,3.339c-.722-.009-1.456-.365-1.443-1.11l-1.295,0a2.731,2.731,0,0,0-.632-1.687,3.31,3.31,0,0,0-1.755-1c-.8-.264-1.911-.542-2.361-.688a.548.548,0,0,1-.436-.531c0-.327.4-.532.883-.555.8.024,1.024.46,1.067.794h1.945a3.128,3.128,0,0,0,1.124,1.98,4.268,4.268,0,0,0,1.446.8c.877.311,1.549.521,1.781.621.453.19.733.311.733.723C117.777,211.19,117.241,211.38,116.719,211.4Z" transform="translate(-85 -179)" fill="#d70033"/>
  </g>
</svg>
