<svg xmlns="http://www.w3.org/2000/svg" xmlns:xlink="http://www.w3.org/1999/xlink" width="43" height="56" viewBox="0 0 43 56">
  <defs>
    <clipPath id="clip-path">
      <rect width="43" height="56" fill="none"/>
    </clipPath>
    <filter id="Path_78" x="28" y="-0.849" width="17.849" height="17.849" filterUnits="userSpaceOnUse">
      <feOffset dy="2" input="SourceAlpha"/>
      <feGaussianBlur stdDeviation="1" result="blur"/>
      <feFlood flood-opacity="0.353"/>
      <feComposite operator="in" in2="blur"/>
      <feComposite in="SourceGraphic"/>
    </filter>
  </defs>
  <g id="icon-txt" clip-path="url(#clip-path)">
    <g id="icon-file" clip-path="url(#clip-path)">
      <path id="Path_259" data-name="Path 259" d="M36.985,0H7.963C7.155,0,6.5.643,6.5,1.892V54.016c0,.339.655.982,1.463.982H48.037c.808,0,1.463-.643,1.463-.982V12.746c0-.684-.093-.9-.257-1.066L37.607.252A.892.892,0,0,0,36.985,0Z" transform="translate(-6.5 1)" fill="#00113f"/>
      <path id="Path_77" data-name="Path 77" d="M36.985,0H7.963C7.155,0,6.5.644,6.5,1.894V54.076c0,.339.655.983,1.463.983H48.037c.808,0,1.463-.644,1.463-.983V12.76c0-.684-.093-.9-.257-1.067L37.607.253A.891.891,0,0,0,36.985,0Z" transform="translate(-6.5)" fill="#efefef"/>
      <g transform="matrix(1, 0, 0, 1, 0, 0)" filter="url(#Path_78)">
        <path id="Path_78-2" data-name="Path 78" d="M37.5.151V12H49.349Z" transform="translate(-6.5)" fill="#efefef"/>
      </g>
    </g>
    <g id="Group_271" data-name="Group 271" transform="translate(-6.5)">
      <path id="Path_83" data-name="Path 83" d="M18.5,13h-6a1,1,0,0,1,0-2h6a1,1,0,0,1,0,2Z" fill="#c7c7c7"/>
      <path id="Path_84" data-name="Path 84" d="M21.5,18h-9a1,1,0,0,1,0-2h9a1,1,0,0,1,0,2Z" fill="#c7c7c7"/>
      <path id="Path_85" data-name="Path 85" d="M25.5,18a1.05,1.05,0,0,1-.71-.29A1.028,1.028,0,0,1,24.5,17a1,1,0,0,1,.3-.71,1.034,1.034,0,0,1,1.41,0A1,1,0,0,1,25.5,18Z" fill="#c7c7c7"/>
      <path id="Path_86" data-name="Path 86" d="M37.5,18h-8a1,1,0,0,1,0-2h8a1,1,0,0,1,0,2Z" fill="#c7c7c7"/>
      <path id="Path_87" data-name="Path 87" d="M12.5,33a1,1,0,0,1-.71-1.71,1.037,1.037,0,0,1,1.42.01,1.009,1.009,0,0,1,.29.7.99.99,0,0,1-1,1Z" fill="#c7c7c7"/>
      <path id="Path_88" data-name="Path 88" d="M24.5,33h-8a1,1,0,0,1,0-2h8a1,1,0,0,1,0,2Z" fill="#c7c7c7"/>
      <path id="Path_89" data-name="Path 89" d="M43.5,18h-2a1,1,0,0,1,0-2h2a1,1,0,0,1,0,2Z" fill="#c7c7c7"/>
      <path id="Path_90" data-name="Path 90" d="M34.5,23h-22a1,1,0,0,1,0-2h22a1,1,0,0,1,0,2Z" fill="#c7c7c7"/>
      <path id="Path_91" data-name="Path 91" d="M43.5,23h-6a1,1,0,0,1,0-2h6a1,1,0,0,1,0,2Z" fill="#c7c7c7"/>
      <path id="Path_92" data-name="Path 92" d="M16.5,28h-4a1,1,0,0,1,0-2h4a1,1,0,0,1,0,2Z" fill="#c7c7c7"/>
      <path id="Path_93" data-name="Path 93" d="M30.5,28h-10a1,1,0,0,1,0-2h10a1,1,0,0,1,0,2Z" fill="#c7c7c7"/>
      <path id="Path_94" data-name="Path 94" d="M43.5,28h-9a1,1,0,0,1,0-2h9a1,1,0,0,1,0,2Z" fill="#c7c7c7"/>
    </g>
  </g>
</svg>
