<svg xmlns="http://www.w3.org/2000/svg" viewBox="0 0 73.066 20.255">
  <g id="Equality" transform="translate(-21 -19.745)">
    <path id="Path_21" data-name="Path 21" d="M12.176-37.846l-.323,3.395h-1.9l-.379-2.067-3.243-.228-.645,4.855,4.248-.418L9.6-30.184l-4.1-.284-.645,5.33,4.324-.323,1.005-2.6,1.935.132-.664,4.173H0l.133-.967,1.479-.265L3.129-36.613l-1.347-.209L1.9-37.846Z" transform="translate(21 59.032)"/>
    <path id="Path_22" data-name="Path 22" d="M32.556-21.81a3.586,3.586,0,0,0,.967-.692v-7.188q-.114-.227-.683-.408a3.992,3.992,0,0,0-1.213-.18A2.79,2.79,0,0,0,29.3-29.131a5.715,5.715,0,0,0-.882,3.5,5.1,5.1,0,0,0,.787,3.082,2.417,2.417,0,0,0,2.02,1.052A2.851,2.851,0,0,0,32.556-21.81Zm-1.138,5.073,2.105-.208V-20l.057-1.555a4.835,4.835,0,0,1-1.375.948,4.117,4.117,0,0,1-1.773.379,3.9,3.9,0,0,1-2.068-.578,4.033,4.033,0,0,1-1.517-1.764,6.736,6.736,0,0,1-.569-2.931,6.359,6.359,0,0,1,.664-2.921,5.05,5.05,0,0,1,1.906-2.067,5.514,5.514,0,0,1,2.931-.759,8.544,8.544,0,0,1,2.314.342l1.043-.284.361.323v13.94l1.308.189v.892H31.418Z" transform="translate(7.785 55.713)"/>
    <path id="Path_23" data-name="Path 23" d="M55.278-20.415a.831.831,0,0,1-.256-.683v-.645a6.042,6.042,0,0,1-1.565,1.1,4.15,4.15,0,0,1-1.887.474,2.988,2.988,0,0,1-2.5-.948,5.151,5.151,0,0,1-.74-3.129v-5.5l-1.062-.3v-.834l2.655-.247h.019l.36.228V-24.4a7.1,7.1,0,0,0,.161,1.717,1.557,1.557,0,0,0,.569.91,2.01,2.01,0,0,0,1.185.294,3.218,3.218,0,0,0,1.423-.322,5.12,5.12,0,0,0,1.157-.759v-7.188l-1.366-.3v-.834l2.883-.247h.019l.436.228v9.559H57.9l-.019.854q-.532.133-.92.209a4.775,4.775,0,0,1-.9.076A1.234,1.234,0,0,1,55.278-20.415Z" transform="translate(-2.769 55.655)"/>
    <path id="Path_24" data-name="Path 24" d="M75.242-21.762a6.07,6.07,0,0,0,1.176-.721v-3.262a6.136,6.136,0,0,0-3.12.635,1.892,1.892,0,0,0-1.053,1.659,2.006,2.006,0,0,0,.5,1.508,1.872,1.872,0,0,0,1.356.484A2.738,2.738,0,0,0,75.242-21.762ZM71.9-25.849a11.111,11.111,0,0,1,4.514-.9v-.531a4.174,4.174,0,0,0-.19-1.4,1.324,1.324,0,0,0-.654-.749,2.963,2.963,0,0,0-1.319-.237,5.134,5.134,0,0,0-1.735.275,11.93,11.93,0,0,0-1.527.673l-.474-.986a5.331,5.331,0,0,1,.91-.55,9.305,9.305,0,0,1,1.536-.607,5.967,5.967,0,0,1,1.745-.265,5.09,5.09,0,0,1,2.134.37,2.2,2.2,0,0,1,1.129,1.186,5.76,5.76,0,0,1,.341,2.181v6.088h1.119v.835c-.254.064-.572.126-.958.19a6.378,6.378,0,0,1-1.015.094,1.161,1.161,0,0,1-.721-.161.948.948,0,0,1-.189-.711v-.625a6.633,6.633,0,0,1-1.394,1.043,3.682,3.682,0,0,1-1.868.474,3.32,3.32,0,0,1-2.267-.787,2.847,2.847,0,0,1-.9-2.266A2.765,2.765,0,0,1,71.9-25.849Z" transform="translate(-14.263 55.655)"/>
    <path id="Path_25" data-name="Path 25" d="M91.831-39.361l-1.536-.209v-.815l3.053-.36h.038l.418.284v14.167l1.612.152v.93H90.295v-.93l1.536-.171Z" transform="translate(-24.408 60.49)"/>
    <path id="Path_26" data-name="Path 26" d="M103.533-37.477a1.265,1.265,0,0,1-.3-.872,1.418,1.418,0,0,1,.37-1.005,1.316,1.316,0,0,1,1.015-.4,1.206,1.206,0,0,1,.948.342,1.265,1.265,0,0,1,.3.872,1.4,1.4,0,0,1-.37,1.025,1.375,1.375,0,0,1-1.034.379h-.019A1.153,1.153,0,0,1,103.533-37.477Zm.152,3.7-1.442-.342v-1.005l2.94-.36h.038l.436.342v9.35l1.518.152v.93h-5.026v-.93l1.536-.171Z" transform="translate(-30.369 59.991)"/>
    <path id="Path_27" data-name="Path 27" d="M113.991-23.213a2.232,2.232,0,0,1-.531-1.688v-7.283h-1.366v-.854q.095-.019.531-.133a2.394,2.394,0,0,0,.588-.209,1.16,1.16,0,0,0,.474-.683,9.583,9.583,0,0,0,.36-1.157q.209-.8.247-.948h1.119l.038,2.731h5.615v1.252h-5.615v5.823a11.559,11.559,0,0,0,.067,1.517.76.76,0,0,0,.284.569,1.532,1.532,0,0,0,.749.133,5.4,5.4,0,0,0,1.128-.133,5.054,5.054,0,0,0,.958-.284l.284.853a5.153,5.153,0,0,1-1.47.664,6.161,6.161,0,0,1-1.849.322A2.3,2.3,0,0,1,113.991-23.213Z" transform="translate(-35.37 58.188)"/>
    <path id="Path_28" data-name="Path 28" d="M127.395-15.463a1.268,1.268,0,0,1-.446-.114v-1.65a1.124,1.124,0,0,0,.446.114,5.588,5.588,0,0,0,.635.038,2.3,2.3,0,0,0,1.6-.636,6.288,6.288,0,0,0,1.337-2.437h-.911l-3.6-9.388-.375-.247v-.891h4.074v.891l-1.461.228,1.858,5.595.872,2.769.816-2.788,1.688-5.576-1.27-.228v-.891h3.812v.891l-.948.228q-2.788,8.534-3.281,9.691a20.074,20.074,0,0,1-1.176,2.551,4.143,4.143,0,0,1-1.252,1.4,3.133,3.133,0,0,1-1.783.483A5.266,5.266,0,0,1,127.395-15.463Z" transform="translate(-42.404 55.425)"/>
  </g>
</svg>
