<svg xmlns="http://www.w3.org/2000/svg" viewBox="0 0 43 56">
  <defs>
    <style>
      .cls-1 {
        fill: #ebebeb;
      }

      .cls-2 {
        fill: #c7c7c7;
      }
    </style>
  </defs>
  <g id="icon-txt" transform="translate(-33 -74)">
    <g id="icon-file" transform="translate(-318)">
      <path id="Path_77" data-name="Path 77" class="cls-1" d="M36.985,0H7.963C7.155,0,6.5.655,6.5,1.926V55a1.506,1.506,0,0,0,1.463,1H48.037A1.506,1.506,0,0,0,49.5,55V12.978c0-.7-.093-.92-.257-1.085L37.607.257A.884.884,0,0,0,36.985,0Z" transform="translate(344.5 74)"/>
      <path id="Path_78" data-name="Path 78" class="cls-2" d="M37.5.151V12H49.349Z" transform="translate(344.5 74)"/>
    </g>
    <g id="Group_271" data-name="Group 271" transform="translate(26.5 74)">
      <path id="Path_83" data-name="Path 83" class="cls-2" d="M18.5,13h-6a1,1,0,0,1,0-2h6a1,1,0,0,1,0,2Z"/>
      <path id="Path_84" data-name="Path 84" class="cls-2" d="M21.5,18h-9a1,1,0,0,1,0-2h9a1,1,0,0,1,0,2Z"/>
      <path id="Path_85" data-name="Path 85" class="cls-2" d="M25.5,18a1.05,1.05,0,0,1-.71-.29A1.028,1.028,0,0,1,24.5,17a1,1,0,0,1,.3-.71,1.034,1.034,0,0,1,1.41,0A1,1,0,0,1,25.5,18Z"/>
      <path id="Path_86" data-name="Path 86" class="cls-2" d="M37.5,18h-8a1,1,0,0,1,0-2h8a1,1,0,0,1,0,2Z"/>
      <path id="Path_87" data-name="Path 87" class="cls-2" d="M12.5,33a1,1,0,0,1-.71-1.71,1.037,1.037,0,0,1,1.42.01,1.009,1.009,0,0,1,.29.7.99.99,0,0,1-1,1Z"/>
      <path id="Path_88" data-name="Path 88" class="cls-2" d="M24.5,33h-8a1,1,0,0,1,0-2h8a1,1,0,0,1,0,2Z"/>
      <path id="Path_89" data-name="Path 89" class="cls-2" d="M43.5,18h-2a1,1,0,0,1,0-2h2a1,1,0,0,1,0,2Z"/>
      <path id="Path_90" data-name="Path 90" class="cls-2" d="M34.5,23h-22a1,1,0,0,1,0-2h22a1,1,0,0,1,0,2Z"/>
      <path id="Path_91" data-name="Path 91" class="cls-2" d="M43.5,23h-6a1,1,0,0,1,0-2h6a1,1,0,0,1,0,2Z"/>
      <path id="Path_92" data-name="Path 92" class="cls-2" d="M16.5,28h-4a1,1,0,0,1,0-2h4a1,1,0,0,1,0,2Z"/>
      <path id="Path_93" data-name="Path 93" class="cls-2" d="M30.5,28h-10a1,1,0,0,1,0-2h10a1,1,0,0,1,0,2Z"/>
      <path id="Path_94" data-name="Path 94" class="cls-2" d="M43.5,28h-9a1,1,0,0,1,0-2h9a1,1,0,0,1,0,2Z"/>
    </g>
  </g>
</svg>
