<svg xmlns="http://www.w3.org/2000/svg" viewBox="0 0 43 56">
  <defs>
    <style>
      .cls-1 {
        fill: #ebebeb;
      }

      .cls-2 {
        fill: #c7c7c7;
      }

      .cls-3 {
        fill: #a91755;
      }
    </style>
  </defs>
  <g id="icon-acrobat" transform="translate(-139 -74)">
    <g id="icon-file" transform="translate(-212)">
      <path id="Path_77" data-name="Path 77" class="cls-1" d="M36.985,0H7.963C7.155,0,6.5.655,6.5,1.926V55a1.506,1.506,0,0,0,1.463,1H48.037A1.506,1.506,0,0,0,49.5,55V12.978c0-.7-.093-.92-.257-1.085L37.607.257A.884.884,0,0,0,36.985,0Z" transform="translate(344.5 74)"/>
      <path id="Path_78" data-name="Path 78" class="cls-2" d="M37.5.151V12H49.349Z" transform="translate(344.5 74)"/>
    </g>
    <path id="Path_76" data-name="Path 76" class="cls-3" d="M19.514,33.324h0A1.605,1.605,0,0,1,18.547,33a2.4,2.4,0,0,1-1.115-2.242c.182-1.628,2.195-3.332,5.985-5.068a67.126,67.126,0,0,0,3.788-10.75c-1-2.172-1.968-4.99-1.261-6.643A1.918,1.918,0,0,1,27.078,7.08a4.909,4.909,0,0,1,1.016-.172c.5,0,.947.649,1.261,1.049.3.376.964,1.173-.373,6.8a31.954,31.954,0,0,0,5.088,7.562,19.455,19.455,0,0,1,3.358-.358c1.566,0,2.515.365,2.9,1.117a2.024,2.024,0,0,1-.39,2.16,2.658,2.658,0,0,1-2.22,1.191c-1.216,0-2.632-.768-4.211-2.285a47.915,47.915,0,0,0-8.828,2.822A28.374,28.374,0,0,1,22.3,31.219C21.273,32.654,20.389,33.324,19.514,33.324ZM22.176,28.2c-2.137,1.2-3.008,2.188-3.071,2.744-.01.092-.037.334.431.692C19.685,31.587,20.555,31.19,22.176,28.2Zm13.637-4.442c.815.627,1.014.944,1.547.944a1.508,1.508,0,0,0,1.21-.441,1.583,1.583,0,0,0,.23-.415c-.123-.065-.286-.2-1.175-.2A14.621,14.621,0,0,0,35.813,23.756Zm-7.47-6.582a71.291,71.291,0,0,1-2.674,7.564,49.966,49.966,0,0,1,6.5-2.02A34.23,34.23,0,0,1,28.343,17.174Zm-.607-8.462a2.4,2.4,0,0,0,.1,3.216C28.781,9.813,27.779,8.7,27.736,8.712Z" transform="translate(131.5 82)"/>
  </g>
</svg>
