<svg xmlns="http://www.w3.org/2000/svg" viewBox="0 0 190 152">
  <defs>
    <style>
      .cls-1 {
        fill: rgba(255,255,255,0);
      }

      .cls-2 {
        fill: #f2965f;
      }

      .cls-3 {
        fill: #f9c269;
      }
    </style>
  </defs>
  <g id="Afnemen" transform="translate(14.137 6)">
    <rect id="Rectangle_8" data-name="Rectangle 8" class="cls-1" width="190" height="152" transform="translate(-14.137 -6)"/>
    <g id="Group_272" data-name="Group 272" transform="translate(16.226 95.346)">
      <path id="Path_102" data-name="Path 102" class="cls-2" d="M159.8,939l11.017,12.54A12.653,12.653,0,0,0,159.8,939Z" transform="translate(-159.8 -939)"/>
    </g>
    <g id="Group_273" data-name="Group 273" transform="translate(1.95 81.892)">
      <path id="Path_103" data-name="Path 103" class="cls-2" d="M64.751,830.738V811.374a19.794,19.794,0,0,0-31.62,8.184l.345.4a12.653,12.653,0,0,1,11.017,12.54l-11.017-12.54a12.251,12.251,0,0,0-1.625-.1,12.642,12.642,0,1,0,0,25.284h42.83a11.4,11.4,0,0,0,11.383-10.753l.01-.426H67.96C65.929,832.951,64.974,831.875,64.751,830.738Z" transform="translate(-19.2 -806.5)"/>
    </g>
    <path id="Path_104" data-name="Path 104" class="cls-3" d="M867.961,105a3.358,3.358,0,0,0-3.361,3.361v3.909l24.37.68c2.163-.3,2.874.7,2.153,2.985v31.65h29.812a3.358,3.358,0,0,0,3.361-3.361V105H867.961Z" transform="translate(-776.808 -94.338)"/>
    <path id="Path_105" data-name="Path 105" class="cls-3" d="M1183.685,9h-5.991a4.468,4.468,0,0,0-4.468,4.468h-9.646a5.263,5.263,0,0,0-5.28,5.28h29.8V13.417l.02.02A4.416,4.416,0,0,0,1183.685,9Z" transform="translate(-1040.686 -8.086)"/>
    <path id="Path_106" data-name="Path 106" d="M528.034,267.119H467.648a3.852,3.852,0,0,1-3.848-3.848V178.748a3.852,3.852,0,0,1,3.848-3.848h60.386a3.852,3.852,0,0,1,3.848,3.848V263.27A3.853,3.853,0,0,1,528.034,267.119Zm-60.386-90.493a2.128,2.128,0,0,0-2.122,2.122V263.27a2.128,2.128,0,0,0,2.122,2.122h60.386a2.128,2.128,0,0,0,2.122-2.122V178.748a2.128,2.128,0,0,0-2.122-2.122Z" transform="translate(-416.706 -157.141)"/>
    <path id="Path_107" data-name="Path 107" d="M856.963,105.6a.862.862,0,0,1-.863-.863v-3.909a4.227,4.227,0,0,1,4.224-4.224h26.461a.863.863,0,1,1,0,1.726H860.324a2.5,2.5,0,0,0-2.5,2.5v3.909A.862.862,0,0,1,856.963,105.6Z" transform="translate(-769.171 -86.791)"/>
    <path id="Path_108" data-name="Path 108" d="M1148.075,140.822h-29.812a.863.863,0,1,1,0-1.726h29.812a2.5,2.5,0,0,0,2.5-2.5V97.363a.863.863,0,0,1,1.726,0V136.6A4.234,4.234,0,0,1,1148.075,140.822Z" transform="translate(-1003.939 -86.701)"/>
    <path id="Path_109" data-name="Path 109" d="M1180.516,11.474H1165.64a.863.863,0,1,1,0-1.726h14.012V5.331a3.605,3.605,0,0,0-3.6-3.6h-5.991a3.605,3.605,0,0,0-3.6,3.6.862.862,0,0,1-.863.863h-9.646a4.424,4.424,0,0,0-4.407,4.153.756.756,0,0,1,.041.264.862.862,0,0,1-.863.863h-.051a.862.862,0,0,1-.863-.863,6.119,6.119,0,0,1,6.143-6.143h8.854A5.347,5.347,0,0,1,1170.057,0h5.991a5.343,5.343,0,0,1,5.331,5.331v5.28A.862.862,0,0,1,1180.516,11.474Z" transform="translate(-1033.049)"/>
    <path id="Path_110" data-name="Path 110" d="M1154.022,97.726h-3.859a.863.863,0,1,1,0-1.726h3.859a.863.863,0,0,1,0,1.726Z" transform="translate(-1032.6 -86.252)"/>
    <g id="Group_274" data-name="Group 274" transform="translate(57.728 31.48)">
      <path id="Path_111" data-name="Path 111" d="M572.127,317.232a.828.828,0,0,1-.609-.254l-2.742-2.742a.862.862,0,0,1,1.219-1.218l2.122,2.122,4.864-4.864a.862.862,0,1,1,1.219,1.218l-5.463,5.483A.829.829,0,0,1,572.127,317.232Z" transform="translate(-568.525 -310.025)"/>
    </g>
    <g id="Group_277" data-name="Group 277" transform="translate(72.429 31.681)">
      <g id="Group_275" data-name="Group 275" transform="translate(0 5.179)">
        <path id="Path_112" data-name="Path 112" d="M744.524,364.726h-30.36a.863.863,0,1,1,0-1.726h30.36a.863.863,0,1,1,0,1.726Z" transform="translate(-713.3 -363)"/>
      </g>
      <g id="Group_276" data-name="Group 276">
        <path id="Path_113" data-name="Path 113" d="M729.293,313.726H714.163a.863.863,0,1,1,0-1.726h15.129a.863.863,0,1,1,0,1.726Z" transform="translate(-713.3 -312)"/>
      </g>
    </g>
    <g id="Group_278" data-name="Group 278" transform="translate(57.728 50.671)">
      <path id="Path_114" data-name="Path 114" d="M572.127,506.232a.828.828,0,0,1-.609-.254l-2.742-2.742a.862.862,0,0,1,1.219-1.218l2.122,2.122,4.864-4.864a.862.862,0,1,1,1.219,1.218l-5.463,5.483A.87.87,0,0,1,572.127,506.232Z" transform="translate(-568.525 -499.025)"/>
    </g>
    <g id="Group_281" data-name="Group 281" transform="translate(72.429 50.872)">
      <g id="Group_279" data-name="Group 279" transform="translate(0 5.179)">
        <path id="Path_115" data-name="Path 115" d="M744.524,553.726h-30.36a.863.863,0,0,1,0-1.726h30.36a.863.863,0,0,1,0,1.726Z" transform="translate(-713.3 -552)"/>
      </g>
      <g id="Group_280" data-name="Group 280">
        <path id="Path_116" data-name="Path 116" d="M729.293,502.726H714.163a.863.863,0,1,1,0-1.726h15.129a.863.863,0,1,1,0,1.726Z" transform="translate(-713.3 -501)"/>
      </g>
    </g>
    <g id="Group_282" data-name="Group 282" transform="translate(57.728 69.862)">
      <path id="Path_117" data-name="Path 117" d="M572.127,695.232a.828.828,0,0,1-.609-.254l-2.742-2.742a.862.862,0,0,1,1.219-1.219l2.122,2.122,4.864-4.864a.862.862,0,0,1,1.219,1.219l-5.463,5.483A.87.87,0,0,1,572.127,695.232Z" transform="translate(-568.525 -688.025)"/>
    </g>
    <g id="Group_285" data-name="Group 285" transform="translate(72.429 69.961)">
      <g id="Group_283" data-name="Group 283" transform="translate(0 5.179)">
        <path id="Path_118" data-name="Path 118" d="M744.524,741.726h-30.36a.863.863,0,0,1,0-1.726h30.36a.863.863,0,0,1,0,1.726Z" transform="translate(-713.3 -740)"/>
      </g>
      <g id="Group_284" data-name="Group 284">
        <path id="Path_119" data-name="Path 119" d="M729.293,690.726H714.163a.863.863,0,0,1,0-1.726h15.129a.863.863,0,0,1,0,1.726Z" transform="translate(-713.3 -689)"/>
      </g>
    </g>
    <g id="Group_286" data-name="Group 286" transform="translate(57.728 89.043)">
      <path id="Path_120" data-name="Path 120" d="M572.127,884.132a.828.828,0,0,1-.609-.254l-2.742-2.742a.862.862,0,1,1,1.219-1.218l2.122,2.122,4.864-4.864a.862.862,0,0,1,1.219,1.218l-5.463,5.483A.828.828,0,0,1,572.127,884.132Z" transform="translate(-568.525 -876.925)"/>
    </g>
    <g id="Group_289" data-name="Group 289" transform="translate(72.429 89.152)">
      <g id="Group_287" data-name="Group 287" transform="translate(0 5.179)">
        <path id="Path_121" data-name="Path 121" d="M744.524,930.726h-30.36a.863.863,0,0,1,0-1.726h30.36a.863.863,0,0,1,0,1.726Z" transform="translate(-713.3 -929)"/>
      </g>
      <g id="Group_288" data-name="Group 288">
        <path id="Path_122" data-name="Path 122" d="M729.293,879.726H714.163a.863.863,0,0,1,0-1.726h15.129a.863.863,0,0,1,0,1.726Z" transform="translate(-713.3 -878)"/>
      </g>
    </g>
    <g id="Group_290" data-name="Group 290" transform="translate(130.916 85.801)">
      <path id="Path_123" data-name="Path 123" d="M1291.788,846.726h-1.625a.863.863,0,0,1,0-1.726h1.625a.863.863,0,1,1,0,1.726Z" transform="translate(-1289.3 -845)"/>
    </g>
    <g id="Group_291" data-name="Group 291" transform="translate(123.503 85.801)">
      <path id="Path_124" data-name="Path 124" d="M1218.686,846.726h-1.523a.863.863,0,0,1,0-1.726h1.523a.863.863,0,0,1,0,1.726Z" transform="translate(-1216.3 -845)"/>
    </g>
    <g id="Group_292" data-name="Group 292" transform="translate(150.107 34.219)">
      <path id="Path_125" data-name="Path 125" d="M1480.686,338.726h-1.523a.863.863,0,0,1,0-1.726h1.523a.863.863,0,0,1,0,1.726Z" transform="translate(-1478.3 -337)"/>
    </g>
    <g id="Group_293" data-name="Group 293" transform="translate(154.778 34.219)">
      <path id="Path_126" data-name="Path 126" d="M1526.737,340.3a.862.862,0,0,1-.863-.863v-.711h-.711a.863.863,0,0,1,0-1.726h1.574a.862.862,0,0,1,.863.863v1.574A.862.862,0,0,1,1526.737,340.3Z" transform="translate(-1524.3 -337)"/>
    </g>
    <g id="Group_294" data-name="Group 294" transform="translate(156.352 41.073)">
      <path id="Path_127" data-name="Path 127" d="M1540.663,443.593a.862.862,0,0,1-.863-.863v-3.249a.863.863,0,1,1,1.726,0v3.249A.862.862,0,0,1,1540.663,443.593Zm0-8.529a.862.862,0,0,1-.863-.863v-3.249a.863.863,0,1,1,1.726,0V434.2A.862.862,0,0,1,1540.663,435.064Zm0-8.529a.862.862,0,0,1-.863-.863v-3.249a.863.863,0,0,1,1.726,0v3.249A.862.862,0,0,1,1540.663,426.534Zm0-8.529a.862.862,0,0,1-.863-.863v-3.249a.863.863,0,1,1,1.726,0v3.249A.862.862,0,0,1,1540.663,418Zm0-8.529a.862.862,0,0,1-.863-.863v-3.249a.863.863,0,1,1,1.726,0v3.249A.862.862,0,0,1,1540.663,409.475Z" transform="translate(-1539.8 -404.5)"/>
    </g>
    <g id="Group_295" data-name="Group 295" transform="translate(154.778 84.228)">
      <path id="Path_128" data-name="Path 128" d="M1526.737,832.8h-1.574a.863.863,0,0,1,0-1.726h.711v-.711a.863.863,0,1,1,1.726,0v1.574A.862.862,0,0,1,1526.737,832.8Z" transform="translate(-1524.3 -829.5)"/>
    </g>
    <g id="Group_296" data-name="Group 296" transform="translate(147.974 85.801)">
      <path id="Path_129" data-name="Path 129" d="M1459.686,846.726h-1.523a.863.863,0,0,1,0-1.726h1.523a.863.863,0,0,1,0,1.726Z" transform="translate(-1457.3 -845)"/>
    </g>
    <path id="Path_130" data-name="Path 130" d="M1318.172,790.645a8.072,8.072,0,1,1,8.072-8.072A8.086,8.086,0,0,1,1318.172,790.645Zm0-14.419a6.346,6.346,0,1,0,6.346,6.346A6.349,6.349,0,0,0,1318.172,776.226Z" transform="translate(-1177.072 -695.857)"/>
    <g id="Group_297" data-name="Group 297" transform="translate(140.207 83.415)">
      <path id="Path_131" data-name="Path 131" d="M1381.663,828.1a.862.862,0,0,1-.863-.863v-4.874a.863.863,0,1,1,1.726,0v4.874A.862.862,0,0,1,1381.663,828.1Z" transform="translate(-1380.8 -821.5)"/>
    </g>
    <g id="Group_298" data-name="Group 298" transform="translate(137.82 85.903)">
      <path id="Path_132" data-name="Path 132" d="M1363.037,847.726h-4.874a.863.863,0,0,1,0-1.726h4.874a.863.863,0,0,1,0,1.726Z" transform="translate(-1357.3 -846)"/>
    </g>
    <g id="Group_302" data-name="Group 302" transform="translate(1.097 81.029)">
      <g id="Group_299" data-name="Group 299" transform="translate(39.113 27.881)">
        <path id="Path_133" data-name="Path 133" d="M413.211,1085.064H396.863a.863.863,0,1,1,0-1.726h16.348a10.541,10.541,0,0,0,10.52-9.941.865.865,0,1,1,1.726.1A12.253,12.253,0,0,1,413.211,1085.064Z" transform="translate(-396 -1072.583)"/>
      </g>
      <g id="Group_300" data-name="Group 300" transform="translate(0 13.353)">
        <path id="Path_134" data-name="Path 134" d="M39.708,956.51H24.3A13.5,13.5,0,1,1,37.81,943a.863.863,0,1,1-1.726,0A11.779,11.779,0,1,0,24.3,954.783h15.4a.863.863,0,0,1,0,1.726Z" transform="translate(-10.8 -929.5)"/>
      </g>
      <g id="Group_301" data-name="Group 301" transform="translate(13.92)">
        <path id="Path_135" data-name="Path 135" d="M148.755,812.784a1,1,0,0,1-.294-.051.866.866,0,0,1-.518-1.107,20.658,20.658,0,0,1,33-8.539.863.863,0,1,1-1.137,1.3,18.929,18.929,0,0,0-30.239,7.829A.87.87,0,0,1,148.755,812.784Z" transform="translate(-147.891 -798)"/>
      </g>
    </g>
    <g id="Group_305" data-name="Group 305" transform="translate(31.947 113.502)">
      <g id="Group_303" data-name="Group 303" transform="translate(2.556 0.68)">
        <path id="Path_136" data-name="Path 136" d="M340.663,1139.833a.862.862,0,0,1-.863-.863v-13.606a.863.863,0,1,1,1.726,0v13.606A.862.862,0,0,1,340.663,1139.833Z" transform="translate(-339.8 -1124.5)"/>
      </g>
      <g id="Group_304" data-name="Group 304">
        <path id="Path_137" data-name="Path 137" d="M320.6,1122.085a.829.829,0,0,1-.609-.254l-1.95-1.95-1.95,1.95a.862.862,0,0,1-1.219-1.219l2.559-2.559a.858.858,0,0,1,1.218,0l2.559,2.559a.864.864,0,0,1,0,1.219A.829.829,0,0,1,320.6,1122.085Z" transform="translate(-314.625 -1117.8)"/>
      </g>
    </g>
    <path id="Path_138" data-name="Path 138" d="M208.663,350.273a.862.862,0,0,1-.863-.863v-3.148a.863.863,0,0,1,1.726,0v3.148A.862.862,0,0,1,208.663,350.273Zm0-8.225a.862.862,0,0,1-.863-.863v-3.148a.863.863,0,1,1,1.726,0v3.148A.862.862,0,0,1,208.663,342.048Zm0-8.225a.862.862,0,0,1-.863-.863v-3.148a.863.863,0,0,1,1.726,0v3.148A.862.862,0,0,1,208.663,333.823Zm0-8.225a.862.862,0,0,1-.863-.863v-3.148a.863.863,0,1,1,1.726,0v3.148A.862.862,0,0,1,208.663,325.6Zm0-8.225a.862.862,0,0,1-.863-.863v-3.148a.863.863,0,1,1,1.726,0v3.148A.862.862,0,0,1,208.663,317.374Z" transform="translate(-186.7 -280.769)"/>
    <path id="Path_139" data-name="Path 139" d="M186.561,181.622a3.361,3.361,0,1,1,3.361-3.361A3.365,3.365,0,0,1,186.561,181.622Zm0-5a1.635,1.635,0,1,0,1.635,1.635A1.634,1.634,0,0,0,186.561,176.626Z" transform="translate(-164.598 -157.141)"/>
    <path id="Path_140" data-name="Path 140" d="M299.536,200.726h-3.148a.863.863,0,0,1,0-1.726h3.148a.863.863,0,1,1,0,1.726Zm-8.225,0h-3.148a.863.863,0,1,1,0-1.726h3.148a.863.863,0,1,1,0,1.726Z" transform="translate(-258.128 -178.794)"/>
    <path id="Path_141" data-name="Path 141" d="M1387.663,193.479a.862.862,0,0,1-.863-.863V169.363a.863.863,0,1,1,1.726,0v23.253A.862.862,0,0,1,1387.663,193.479Z" transform="translate(-1245.984 -151.39)"/>
    <path id="Path_142" data-name="Path 142" d="M1530.765,1007.73a2.965,2.965,0,1,1,2.965-2.965A2.968,2.968,0,0,1,1530.765,1007.73Zm0-4.214a1.239,1.239,0,1,0,1.239,1.239A1.237,1.237,0,0,0,1530.765,1003.516Z" transform="translate(-1372.667 -900.077)"/>
    <path id="Path_143" data-name="Path 143" d="M651.365,54.93a2.965,2.965,0,1,1,2.965-2.965A2.968,2.968,0,0,1,651.365,54.93Zm0-4.214a1.239,1.239,0,1,0,1.239,1.239A1.237,1.237,0,0,0,651.365,50.716Z" transform="translate(-582.561 -44.025)"/>
    <path id="Path_144" data-name="Path 144" d="M2.975,349.23a2.965,2.965,0,1,1,2.965-2.965A2.971,2.971,0,0,1,2.975,349.23Zm0-4.214a1.239,1.239,0,1,0,1.239,1.239A1.246,1.246,0,0,0,2.975,345.016Z" transform="translate(0 -308.441)"/>
    <g id="Group_306" data-name="Group 306" transform="translate(123.453 120.985)">
      <path id="Path_145" data-name="Path 145" d="M1216.663,1197.389a.862.862,0,0,1-.863-.863v-4.163a.863.863,0,0,1,1.726,0v4.163A.862.862,0,0,1,1216.663,1197.389Z" transform="translate(-1215.8 -1191.5)"/>
    </g>
    <g id="Group_307" data-name="Group 307" transform="translate(121.371 123.067)">
      <path id="Path_146" data-name="Path 146" d="M1200.326,1213.726h-4.163a.863.863,0,0,1,0-1.726h4.163a.863.863,0,0,1,0,1.726Z" transform="translate(-1195.3 -1212)"/>
    </g>
    <g id="Group_308" data-name="Group 308" transform="translate(9.829 73.261)">
      <path id="Path_147" data-name="Path 147" d="M97.663,727.389a.862.862,0,0,1-.863-.863v-4.163a.863.863,0,1,1,1.726,0v4.163A.862.862,0,0,1,97.663,727.389Z" transform="translate(-96.8 -721.5)"/>
    </g>
    <g id="Group_309" data-name="Group 309" transform="translate(7.748 75.343)">
      <path id="Path_148" data-name="Path 148" d="M81.326,743.726H77.163a.863.863,0,0,1,0-1.726h4.163a.863.863,0,0,1,0,1.726Z" transform="translate(-76.3 -742)"/>
    </g>
    <g id="Group_310" data-name="Group 310" transform="translate(30.848 2.488)">
      <path id="Path_149" data-name="Path 149" d="M304.663,30.389a.862.862,0,0,1-.863-.863V25.363a.863.863,0,1,1,1.726,0v4.163A.862.862,0,0,1,304.663,30.389Z" transform="translate(-303.8 -24.5)"/>
    </g>
    <g id="Group_311" data-name="Group 311" transform="translate(28.766 4.569)">
      <path id="Path_150" data-name="Path 150" d="M288.326,46.726h-4.163a.863.863,0,1,1,0-1.726h4.163a.863.863,0,0,1,0,1.726Z" transform="translate(-283.3 -45)"/>
    </g>
  </g>
</svg>
