<svg xmlns="http://www.w3.org/2000/svg" viewBox="0 0 190 152">
  <defs>
    <style>
      .cls-1 {
        fill: rgba(255,255,255,0);
      }

      .cls-2 {
        fill: #ffcd00;
      }
    </style>
  </defs>
  <g id="Ontwerpen" transform="translate(12.841 6.102)">
    <rect id="Rectangle_7" data-name="Rectangle 7" class="cls-1" width="190" height="152" transform="translate(-12.841 -6.102)"/>
    <g id="Group_336" data-name="Group 336" transform="translate(0.863 0.863)">
      <path id="Path_200" data-name="Path 200" class="cls-2" d="M82.624,8.5H15.252A6.756,6.756,0,0,0,8.5,15.252v2.874H89.377V15.252A6.756,6.756,0,0,0,82.624,8.5Z" transform="translate(-8.5 -8.5)"/>
    </g>
    <g id="Group_358" data-name="Group 358" transform="translate(49.623 12.621)">
      <g id="Group_337" data-name="Group 337" transform="translate(0 11.84)">
        <path id="Path_201" data-name="Path 201" d="M550.406,332.174H491.249a2.557,2.557,0,0,1-2.549-2.549V243.449a2.557,2.557,0,0,1,2.549-2.549h14.266a.863.863,0,1,1,0,1.726H491.249a.819.819,0,0,0-.822.822v86.177a.819.819,0,0,0,.822.822h59.157a.819.819,0,0,0,.823-.822V243.449a.819.819,0,0,0-.823-.822H535.977a.863.863,0,1,1,0-1.726h14.429a2.557,2.557,0,0,1,2.549,2.549v86.177A2.55,2.55,0,0,1,550.406,332.174Z" transform="translate(-488.7 -240.9)"/>
      </g>
      <g id="Group_338" data-name="Group 338" transform="translate(17.12 6.499)">
        <path id="Path_202" data-name="Path 202" d="M685,204.709H659.625a2.331,2.331,0,0,1-2.325-2.325V190.625a2.331,2.331,0,0,1,2.325-2.325H685a2.331,2.331,0,0,1,2.325,2.325v11.758A2.325,2.325,0,0,1,685,204.709Zm-25.375-14.683a.594.594,0,0,0-.6.6v11.758a.594.594,0,0,0,.6.6H685a.594.594,0,0,0,.6-.6V190.625a.594.594,0,0,0-.6-.6Z" transform="translate(-657.3 -188.3)"/>
      </g>
      <g id="Group_339" data-name="Group 339" transform="translate(25.984)">
        <path id="Path_203" data-name="Path 203" d="M756.023,132.525h-10.56a.862.862,0,0,1-.863-.863v-1.218a6.143,6.143,0,1,1,12.286,0v1.218A.862.862,0,0,1,756.023,132.525Zm-9.7-1.726h8.834v-.355a4.417,4.417,0,0,0-8.834,0Z" transform="translate(-744.6 -124.3)"/>
      </g>
      <g id="Group_350" data-name="Group 350" transform="translate(7.798 74.327)">
        <g id="Group_346" data-name="Group 346">
          <path id="Path_209" data-name="Path 209" d="M573.136,864.8h-6.773a.862.862,0,0,1-.863-.863v-6.773a.862.862,0,0,1,.863-.863h6.773a.862.862,0,0,1,.863.863v6.773A.862.862,0,0,1,573.136,864.8Zm-5.92-1.726h5.047v-5.047h-5.047Z" transform="translate(-565.5 -856.3)"/>
        </g>
        <g id="Group_349" data-name="Group 349" transform="translate(13.149 0.558)">
          <g id="Group_347" data-name="Group 347">
            <path id="Path_210" data-name="Path 210" d="M729.676,863.526H695.863a.863.863,0,0,1,0-1.726h33.813a.863.863,0,1,1,0,1.726Z" transform="translate(-695 -861.8)"/>
          </g>
          <g id="Group_348" data-name="Group 348" transform="translate(0 5.686)">
            <path id="Path_211" data-name="Path 211" d="M712.719,919.526H695.863a.863.863,0,0,1,0-1.726h16.856a.863.863,0,0,1,0,1.726Z" transform="translate(-695 -917.8)"/>
          </g>
        </g>
      </g>
      <g id="Group_400" data-name="Group 400" transform="translate(7.798 60.327)">
        <g id="Group_346-2" data-name="Group 346">
          <path id="Path_209-2" data-name="Path 209" d="M573.136,864.8h-6.773a.862.862,0,0,1-.863-.863v-6.773a.862.862,0,0,1,.863-.863h6.773a.862.862,0,0,1,.863.863v6.773A.862.862,0,0,1,573.136,864.8Zm-5.92-1.726h5.047v-5.047h-5.047Z" transform="translate(-565.5 -856.3)"/>
        </g>
        <g id="Group_349-2" data-name="Group 349" transform="translate(13.149 0.558)">
          <g id="Group_347-2" data-name="Group 347">
            <path id="Path_210-2" data-name="Path 210" d="M729.676,863.526H695.863a.863.863,0,0,1,0-1.726h33.813a.863.863,0,1,1,0,1.726Z" transform="translate(-695 -861.8)"/>
          </g>
          <g id="Group_348-2" data-name="Group 348" transform="translate(0 5.686)">
            <path id="Path_211-2" data-name="Path 211" d="M712.719,919.526H695.863a.863.863,0,0,1,0-1.726h16.856a.863.863,0,0,1,0,1.726Z" transform="translate(-695 -917.8)"/>
          </g>
        </g>
      </g>
      <g id="Group_401" data-name="Group 401" transform="translate(7.798 46.327)">
        <g id="Group_346-3" data-name="Group 346">
          <path id="Path_209-3" data-name="Path 209" d="M573.136,864.8h-6.773a.862.862,0,0,1-.863-.863v-6.773a.862.862,0,0,1,.863-.863h6.773a.862.862,0,0,1,.863.863v6.773A.862.862,0,0,1,573.136,864.8Zm-5.92-1.726h5.047v-5.047h-5.047Z" transform="translate(-565.5 -856.3)"/>
        </g>
        <g id="Group_349-3" data-name="Group 349" transform="translate(13.149 0.558)">
          <g id="Group_347-3" data-name="Group 347">
            <path id="Path_210-3" data-name="Path 210" d="M729.676,863.526H695.863a.863.863,0,0,1,0-1.726h33.813a.863.863,0,1,1,0,1.726Z" transform="translate(-695 -861.8)"/>
          </g>
          <g id="Group_348-3" data-name="Group 348" transform="translate(0 5.686)">
            <path id="Path_211-3" data-name="Path 211" d="M712.719,919.526H695.863a.863.863,0,0,1,0-1.726h16.856a.863.863,0,0,1,0,1.726Z" transform="translate(-695 -917.8)"/>
          </g>
        </g>
      </g>
      <g id="Group_402" data-name="Group 402" transform="translate(7.798 32.327)">
        <g id="Group_346-4" data-name="Group 346">
          <path id="Path_209-4" data-name="Path 209" d="M573.136,864.8h-6.773a.862.862,0,0,1-.863-.863v-6.773a.862.862,0,0,1,.863-.863h6.773a.862.862,0,0,1,.863.863v6.773A.862.862,0,0,1,573.136,864.8Zm-5.92-1.726h5.047v-5.047h-5.047Z" transform="translate(-565.5 -856.3)"/>
        </g>
        <g id="Group_349-4" data-name="Group 349" transform="translate(13.149 0.558)">
          <g id="Group_347-4" data-name="Group 347">
            <path id="Path_210-4" data-name="Path 210" d="M729.676,863.526H695.863a.863.863,0,0,1,0-1.726h33.813a.863.863,0,1,1,0,1.726Z" transform="translate(-695 -861.8)"/>
          </g>
          <g id="Group_348-4" data-name="Group 348" transform="translate(0 5.686)">
            <path id="Path_211-4" data-name="Path 211" d="M712.719,919.526H695.863a.863.863,0,0,1,0-1.726h16.856a.863.863,0,0,1,0,1.726Z" transform="translate(-695 -917.8)"/>
          </g>
        </g>
      </g>
      <g id="Group_355" data-name="Group 355" transform="translate(7.798 87.853)">
        <g id="Group_351" data-name="Group 351">
          <path id="Path_212" data-name="Path 212" d="M573.136,998.009h-6.773a.862.862,0,0,1-.863-.863v-6.783a.862.862,0,0,1,.863-.863h6.773a.862.862,0,0,1,.863.863v6.773A.865.865,0,0,1,573.136,998.009Zm-5.92-1.726h5.047v-5.047h-5.047Z" transform="translate(-565.5 -989.5)"/>
        </g>
        <g id="Group_354" data-name="Group 354" transform="translate(13.149 0.538)">
          <g id="Group_352" data-name="Group 352">
            <path id="Path_213" data-name="Path 213" d="M729.676,996.526H695.863a.863.863,0,0,1,0-1.726h33.813a.863.863,0,0,1,0,1.726Z" transform="translate(-695 -994.8)"/>
          </g>
          <g id="Group_353" data-name="Group 353" transform="translate(0 5.686)">
            <path id="Path_214" data-name="Path 214" d="M712.719,1052.526H695.863a.863.863,0,0,1,0-1.726h16.856a.863.863,0,0,1,0,1.726Z" transform="translate(-695 -1050.8)"/>
          </g>
        </g>
      </g>
      <g id="Group_356" data-name="Group 356" transform="translate(23.588 11.322)">
        <path id="Path_215" data-name="Path 215" d="M737.3,237.526H721.863a.863.863,0,1,1,0-1.726H737.3a.863.863,0,1,1,0,1.726Z" transform="translate(-721 -235.8)"/>
      </g>
      <g id="Group_357" data-name="Group 357" transform="translate(29.172 16.297)">
        <path id="Path_216" data-name="Path 216" d="M781.026,286.526h-4.163a.863.863,0,1,1,0-1.726h4.163a.863.863,0,1,1,0,1.726Z" transform="translate(-776 -284.8)"/>
      </g>
    </g>
    <g id="Group_359" data-name="Group 359">
      <path id="Path_217" data-name="Path 217" d="M50.486,65.889H7.514A7.521,7.521,0,0,1,0,58.386V7.5A7.521,7.521,0,0,1,7.514,0h67.23a7.519,7.519,0,0,1,7.5,7.5v5.981a.863.863,0,0,1-1.726,0V7.5a5.781,5.781,0,0,0-5.778-5.778H7.514A5.79,5.79,0,0,0,1.726,7.5V58.386A5.781,5.781,0,0,0,7.5,64.163H50.486a.863.863,0,0,1,0,1.726Z"/>
    </g>
    <g id="Group_360" data-name="Group 360" transform="translate(0 9.626)">
      <path id="Path_218" data-name="Path 218" d="M66.763,96.526H.863a.863.863,0,1,1,0-1.726h65.9a.863.863,0,0,1,0,1.726Z" transform="translate(0 -94.8)"/>
    </g>
    <g id="Group_361" data-name="Group 361" transform="translate(19.75 5.107)">
      <path id="Path_219" data-name="Path 219" d="M195.363,56.6a.862.862,0,0,1-.863-.863V51.163a.863.863,0,1,1,1.726,0v4.569A.862.862,0,0,1,195.363,56.6Z" transform="translate(-194.5 -50.3)"/>
    </g>
    <g id="Group_362" data-name="Group 362" transform="translate(17.77 15.536)">
      <path id="Path_220" data-name="Path 220" d="M207.32,169.236H175.863a.862.862,0,0,1-.863-.863v-14.51a.862.862,0,0,1,.863-.863h44.972a.862.862,0,0,1,.863.863v8.925a.863.863,0,1,1-1.726,0v-8.062H176.726V167.51H207.31a.862.862,0,0,1,.863.863A.847.847,0,0,1,207.32,169.236Z" transform="translate(-175 -153)"/>
    </g>
    <g id="Group_363" data-name="Group 363" transform="translate(20.575 19.031)">
      <path id="Path_221" data-name="Path 221" d="M218.422,197.323a.852.852,0,0,1-.609-.254l-7.23-7.23-6.488,6.488a.862.862,0,1,1-1.218-1.218l7.1-7.1a.864.864,0,0,1,1.218,0l7.23,7.23,5.016-5.016a.87.87,0,0,1,.609-.254.852.852,0,0,1,.609.254l3.889,3.889,6.438-6.438a.862.862,0,1,1,1.218,1.218l-7.037,7.047a.864.864,0,0,1-1.218,0l-3.889-3.889-5.016,5.016A.876.876,0,0,1,218.422,197.323Z" transform="translate(-202.625 -187.425)"/>
    </g>
    <g id="Group_364" data-name="Group 364" transform="translate(7.616 41.408)">
      <path id="Path_222" data-name="Path 222" d="M112.011,409.526H75.863a.863.863,0,1,1,0-1.726h36.148a.863.863,0,1,1,0,1.726Z" transform="translate(-75 -407.8)"/>
    </g>
    <g id="Group_365" data-name="Group 365" transform="translate(7.616 52.781)">
      <path id="Path_223" data-name="Path 223" d="M112.011,521.526H75.863a.863.863,0,0,1,0-1.726h36.148a.863.863,0,0,1,0,1.726Z" transform="translate(-75 -519.8)"/>
    </g>
    <g id="Group_366" data-name="Group 366" transform="translate(94.615 61.483)">
      <path id="Path_224" data-name="Path 224" d="M963.355,677.675a36.07,36.07,0,0,1-31.447-18.358.864.864,0,1,1,1.5-.853,34.349,34.349,0,1,0,17.861-49.054.861.861,0,0,1-.6-1.615,36.11,36.11,0,0,1,26.746,67.067A36.446,36.446,0,0,1,963.355,677.675Z" transform="translate(-931.795 -605.5)"/>
    </g>
    <g id="Group_367" data-name="Group 367" transform="translate(122.975 94.361)">
      <path id="Path_225" data-name="Path 225" d="M1214.3,935.7a3.2,3.2,0,1,1,3.2-3.2A3.2,3.2,0,0,1,1214.3,935.7Zm0-4.671a1.472,1.472,0,1,0,1.472,1.472A1.473,1.473,0,0,0,1214.3,931.026Z" transform="translate(-1211.1 -929.3)"/>
    </g>
    <g id="Group_368" data-name="Group 368" transform="translate(125.351 61.462)">
      <path id="Path_226" data-name="Path 226" d="M1235.363,611.9a.862.862,0,0,1-.863-.863v-4.874a.863.863,0,1,1,1.726,0v4.874A.862.862,0,0,1,1235.363,611.9Z" transform="translate(-1234.5 -605.3)"/>
    </g>
    <g id="Group_369" data-name="Group 369" transform="translate(125.351 127.057)">
      <path id="Path_227" data-name="Path 227" d="M1235.363,1257.9a.862.862,0,0,1-.863-.863v-4.874a.863.863,0,0,1,1.726,0v4.874A.862.862,0,0,1,1235.363,1257.9Z" transform="translate(-1234.5 -1251.3)"/>
    </g>
    <g id="Group_370" data-name="Group 370" transform="translate(146.83 118.175)">
      <path id="Path_228" data-name="Path 228" d="M1450.328,1168.991a.829.829,0,0,1-.609-.254l-3.442-3.442a.862.862,0,0,1,1.219-1.219l3.442,3.442a.863.863,0,0,1-.609,1.472Z" transform="translate(-1446.025 -1163.825)"/>
    </g>
    <g id="Group_371" data-name="Group 371" transform="translate(155.661 96.747)">
      <path id="Path_229" data-name="Path 229" d="M1538.839,954.526h-4.975a.863.863,0,1,1,0-1.726h4.975a.863.863,0,0,1,0,1.726Z" transform="translate(-1533 -952.8)"/>
    </g>
    <g id="Group_372" data-name="Group 372" transform="translate(100.487 118.226)">
      <path id="Path_230" data-name="Path 230" d="M990.486,1169.491a.829.829,0,0,1-.609-.254.864.864,0,0,1,0-1.218l3.442-3.442a.862.862,0,0,1,1.219,1.219l-3.442,3.442A.829.829,0,0,1,990.486,1169.491Z" transform="translate(-989.625 -1164.325)"/>
    </g>
    <g id="Group_373" data-name="Group 373" transform="translate(146.799 71.842)">
      <path id="Path_231" data-name="Path 231" d="M1446.585,712.762a.829.829,0,0,1-.609-.254.864.864,0,0,1,0-1.218l3.513-3.513a.862.862,0,0,1,1.219,1.219l-3.513,3.513A.829.829,0,0,1,1446.585,712.762Z" transform="translate(-1445.725 -707.525)"/>
    </g>
    <g id="Group_374" data-name="Group 374" transform="translate(125.351 73.546)">
      <path id="Path_232" data-name="Path 232" d="M1235.363,746.842a.862.862,0,0,1-.863-.863V725.163a.863.863,0,1,1,1.726,0v20.816A.862.862,0,0,1,1235.363,746.842Z" transform="translate(-1234.5 -724.3)"/>
    </g>
    <g id="Group_375" data-name="Group 375" transform="translate(127.636 96.646)">
      <path id="Path_233" data-name="Path 233" d="M1269.642,953.526h-11.779a.863.863,0,0,1,0-1.726h11.779a.863.863,0,1,1,0,1.726Z" transform="translate(-1257 -951.8)"/>
    </g>
    <g id="Group_379" data-name="Group 379" transform="translate(119.421 43.601)">
      <g id="Group_376" data-name="Group 376" transform="translate(1.411 10.52)">
        <path id="Path_234" data-name="Path 234" d="M1199.9,542.078a.862.862,0,0,1-.863-.863v-6.488h-7.311V541.2a.863.863,0,1,1-1.726,0v-7.341a.862.862,0,0,1,.863-.863h9.037a.862.862,0,0,1,.863.863V541.2A.865.865,0,0,1,1199.9,542.078Z" transform="translate(-1190 -533)"/>
      </g>
      <g id="Group_377" data-name="Group 377" transform="translate(3.625 3.341)">
        <path id="Path_235" data-name="Path 235" d="M1217.192,471.205a.862.862,0,0,1-.863-.863v-6.316h-2.8v6.316a.863.863,0,1,1-1.726,0v-7.179a.862.862,0,0,1,.863-.863h4.529a.862.862,0,0,1,.863.863v7.179A.862.862,0,0,1,1217.192,471.205Z" transform="translate(-1211.8 -462.3)"/>
      </g>
      <g id="Group_378" data-name="Group 378">
        <path id="Path_236" data-name="Path 236" d="M1188.742,434.467h-11.779a.862.862,0,0,1-.863-.863v-3.341a.862.862,0,0,1,.863-.863h11.779a.862.862,0,0,1,.863.863V433.6A.862.862,0,0,1,1188.742,434.467Zm-10.916-1.726h10.052v-1.615h-10.052Z" transform="translate(-1176.1 -429.4)"/>
      </g>
    </g>
    <g id="Group_383" data-name="Group 383" transform="translate(139.465 54.75)">
      <g id="Group_380" data-name="Group 380" transform="translate(0 3.889)">
        <path id="Path_237" data-name="Path 237" d="M1379.531,587.42a.865.865,0,0,1-.741-1.3l2.589-4.427-3.686-2.153-2.589,4.427a.86.86,0,1,1-1.482-.873l3.026-5.168a.853.853,0,0,1,1.178-.3l5.168,3.026a.853.853,0,0,1,.3,1.178l-3.026,5.168A.848.848,0,0,1,1379.531,587.42Z" transform="translate(-1373.5 -577.5)"/>
      </g>
      <g id="Group_381" data-name="Group 381" transform="translate(5.605 2.041)">
        <path id="Path_238" data-name="Path 238" d="M1429.563,564.356a.865.865,0,0,1-.741-1.3l1.95-3.331a.86.86,0,1,1,1.482.873l-1.95,3.331A.848.848,0,0,1,1429.563,564.356Z" transform="translate(-1428.7 -559.3)"/>
      </g>
      <g id="Group_382" data-name="Group 382" transform="translate(5.747)">
        <path id="Path_239" data-name="Path 239" d="M1435.349,543.485a.861.861,0,0,1-.437-.122l-4.386-2.559a.86.86,0,1,1,.873-1.482l4.386,2.559a.862.862,0,0,1-.437,1.6Z" transform="translate(-1430.1 -539.2)"/>
      </g>
    </g>
    <g id="Group_384" data-name="Group 384" transform="translate(104.383 5.158)">
      <path id="Path_240" data-name="Path 240" d="M1068.058,52.526h-39.195a.863.863,0,0,1,0-1.726h39.195a.863.863,0,0,1,0,1.726Z" transform="translate(-1028 -50.8)"/>
    </g>
    <g id="Group_385" data-name="Group 385" transform="translate(136.47 19.069)">
      <path id="Path_241" data-name="Path 241" d="M1362.328,189.526h-17.465a.863.863,0,0,1,0-1.726h17.465a.863.863,0,0,1,0,1.726Z" transform="translate(-1344 -187.8)"/>
    </g>
    <g id="Group_386" data-name="Group 386" transform="translate(7.616 131.17)">
      <path id="Path_242" data-name="Path 242" d="M120.947,1293.526H75.863a.863.863,0,0,1,0-1.726h45.084a.863.863,0,1,1,0,1.726Z" transform="translate(-75 -1291.8)"/>
    </g>
    <g id="Group_387" data-name="Group 387" transform="translate(0.508 119.899)">
      <path id="Path_243" data-name="Path 243" d="M24.445,1182.526H5.863a.863.863,0,0,1,0-1.726H24.445a.863.863,0,0,1,0,1.726Z" transform="translate(-5 -1180.8)"/>
    </g>
    <g id="Group_388" data-name="Group 388" transform="translate(38.281 73.556)">
      <path id="Path_244" data-name="Path 244" d="M379.843,730.086a2.843,2.843,0,1,1,2.843-2.843A2.851,2.851,0,0,1,379.843,730.086Zm0-3.96a1.117,1.117,0,1,0,1.117,1.117A1.114,1.114,0,0,0,379.843,726.126Z" transform="translate(-377 -724.4)"/>
    </g>
    <g id="Group_389" data-name="Group 389" transform="translate(143.243 38.291)">
      <path id="Path_245" data-name="Path 245" d="M1413.543,382.786a2.843,2.843,0,1,1,2.843-2.843A2.852,2.852,0,0,1,1413.543,382.786Zm0-3.96a1.117,1.117,0,1,0,1.117,1.117A1.114,1.114,0,0,0,1413.543,378.826Z" transform="translate(-1410.7 -377.1)"/>
    </g>
    <g id="Group_392" data-name="Group 392" transform="translate(15.231 96.595)">
      <g id="Group_390" data-name="Group 390" transform="translate(1.371)">
        <path id="Path_246" data-name="Path 246" d="M164.363,955.869a.862.862,0,0,1-.863-.863v-2.843a.863.863,0,1,1,1.726,0v2.843A.862.862,0,0,1,164.363,955.869Z" transform="translate(-163.5 -951.3)"/>
      </g>
      <g id="Group_391" data-name="Group 391" transform="translate(0 1.472)">
        <path id="Path_247" data-name="Path 247" d="M153.706,967.526h-2.843a.863.863,0,1,1,0-1.726h2.843a.863.863,0,0,1,0,1.726Z" transform="translate(-150 -965.8)"/>
      </g>
    </g>
    <g id="Group_395" data-name="Group 395" transform="translate(114.74 14.145)">
      <g id="Group_393" data-name="Group 393" transform="translate(1.371)">
        <path id="Path_248" data-name="Path 248" d="M1144.363,143.869a.862.862,0,0,1-.863-.863v-2.843a.863.863,0,1,1,1.726,0v2.843A.862.862,0,0,1,1144.363,143.869Z" transform="translate(-1143.5 -139.3)"/>
      </g>
      <g id="Group_394" data-name="Group 394" transform="translate(0 1.472)">
        <path id="Path_249" data-name="Path 249" d="M1133.706,155.526h-2.843a.863.863,0,1,1,0-1.726h2.843a.863.863,0,1,1,0,1.726Z" transform="translate(-1130 -153.8)"/>
      </g>
    </g>
    <g id="Group_398" data-name="Group 398" transform="translate(70.672 125.636)">
      <g id="Group_396" data-name="Group 396" transform="translate(1.371)">
        <path id="Path_250" data-name="Path 250" d="M710.363,1241.869a.862.862,0,0,1-.863-.863v-2.843a.863.863,0,0,1,1.726,0v2.843A.862.862,0,0,1,710.363,1241.869Z" transform="translate(-709.5 -1237.3)"/>
      </g>
      <g id="Group_397" data-name="Group 397" transform="translate(0 1.472)">
        <path id="Path_251" data-name="Path 251" d="M699.706,1253.526h-2.843a.863.863,0,1,1,0-1.726h2.843a.863.863,0,1,1,0,1.726Z" transform="translate(-696 -1251.8)"/>
      </g>
    </g>
  </g>
</svg>
